HIERARCHY
ROOT Hips
{
  OFFSET 0 0 0
  CHANNELS 6 Xposition Yposition Zposition Zrotation Xrotation Yrotation
  JOINT Spine
  {
    OFFSET 0 10.1816 0.1315
    CHANNELS 3 Zrotation Xrotation Yrotation
    JOINT Spine1
    {
      OFFSET 0 10.0835 -1.0008
      CHANNELS 3 Zrotation Xrotation Yrotation
      JOINT Spine2
      {
        OFFSET 0 9.1 -1.3734
        CHANNELS 3 Zrotation Xrotation Yrotation
        JOINT Neck
        {
          OFFSET 0 16.6717 -2.5162
          CHANNELS 3 Zrotation Xrotation Yrotation
          JOINT Head
          {
            OFFSET 0 9.6179 1.685
            CHANNELS 3 Zrotation Xrotation Yrotation
            End Site
            {
              OFFSET 0 0 0
            }
          }
        }
        JOINT LeftShoulder
        {
          OFFSET 4.5704 10.946 -2.628
          CHANNELS 3 Zrotation Xrotation Yrotation
          JOINT LeftArm
          {
            OFFSET 10.5924 -0.5246 -2.2321
            CHANNELS 3 Zrotation Xrotation Yrotation
            JOINT LeftForeArm
            {
              OFFSET 27.8415 -0.0001 0
              CHANNELS 3 Zrotation Xrotation Yrotation
              JOINT LeftHand
              {
                OFFSET 28.3288 0 0
                CHANNELS 3 Zrotation Xrotation Yrotation
                End Site
                {
                  OFFSET 0 0 0
                }
              }
            }
          }
        }
        JOINT RightShoulder
        {
          OFFSET -4.57 10.9462 -2.628
          CHANNELS 3 Zrotation Xrotation Yrotation
          JOINT RightArm
          {
            OFFSET -10.5928 -0.5248 -2.2321
            CHANNELS 3 Zrotation Xrotation Yrotation
            JOINT RightForeArm
            {
              OFFSET -27.8415 0 0
              CHANNELS 3 Zrotation Xrotation Yrotation
              JOINT RightHand
              {
                OFFSET -28.3288 0 0.0001
                CHANNELS 3 Zrotation Xrotation Yrotation
                End Site
                {
                  OFFSET 0 0 0
                }
              }
            }
          }
        }
      }
    }
  }
  JOINT LeftUpLeg
  {
    OFFSET 8.2078 -6.7517 -1.5996
    CHANNELS 3 Zrotation Xrotation Yrotation
    JOINT LeftLeg
    {
      OFFSET 0 -44.3705 0.2846
      CHANNELS 3 Zrotation Xrotation Yrotation
      JOINT LeftFoot
      {
        OFFSET 0 -44.4279 -2.9822
        CHANNELS 3 Zrotation Xrotation Yrotation
        JOINT LeftToeBase
        {
          OFFSET 0 -8.7287 10.7106
          CHANNELS 3 Zrotation Xrotation Yrotation
          End Site
          {
            OFFSET 0 -0.0007 9.2781
          }
        }
      }
    }
  }
  JOINT RightUpLeg
  {
    OFFSET -8.2078 -6.7517 -1.5996
    CHANNELS 3 Zrotation Xrotation Yrotation
    JOINT RightLeg
    {
      OFFSET 0 -44.3705 0.2862
      CHANNELS 3 Zrotation Xrotation Yrotation
      JOINT RightFoot
      {
        OFFSET 0 -44.4277 -2.9838
        CHANNELS 3 Zrotation Xrotation Yrotation
        JOINT RightToeBase
        {
          OFFSET 0 -8.7287 10.7106
          CHANNELS 3 Zrotation Xrotation Yrotation
          End Site
          {
            OFFSET 0 -0.0007 9.2781
          }
        }
      }
    }
  }
}
MOTION
Frames:	16
Frame Time:	0.0333333
0.142435 103.394 1.42217 -3.74503 -3.40386 -5.45257 2.73044 3.36671 1.38411 1.55309 1.16067 0.308114 1.55616 1.13542 0.330833 0.456883 5.6255 -0.123752 -0.0812492 -7.56527 1.36503 -11.7848 4.69411 -16.8493 -69.8725 20.0975 -3.28874 -0.000208637 -1.12579e-05 -1.45936 -7.3665 -32.8398 -5.386 14.2263 5.01797 14.5673 61.3313 30.2135 2.57029 1.06919e-05 9.66383e-07 6.69354 7.22345 -20.0658 1.97565 10.0883 -8.01923 16.3907 4.26779 12.3047 1.12763 -7.11366 1.18807 0.667974 3.05898e-06 -4.92853 7.51305e-06 3.44158 -0.023629 -10.4083 -3.26084 7.94401 -9.30819 3.20596 -3.77369 -1.44101 -1.20752e-07 -7.28288 -7.7826e-06 
0.143434 103.394 1.42417 -3.74537 -3.38612 -5.45031 2.72898 3.36323 1.37956 1.55247 1.15953 0.306198 1.55555 1.13428 0.328918 0.457851 5.6259 -0.123568 -0.0830663 -7.56266 1.36485 -11.7779 4.6931 -16.8541 -69.8792 20.1078 -3.28058 -0.000209997 3.75691e-06 -1.45653 -7.36598 -32.8377 -5.37958 14.2158 5.0166 14.5718 61.3269 30.2169 2.56988 2.11789e-05 -3.03658e-06 6.68961 7.22544 -20.0576 1.97457 10.0892 -8.03885 16.3811 4.26829 12.3072 1.13236 -7.11405 1.19265 0.668115 2.35158e-07 -4.93314 4.12015e-06 3.4448 -0.0333862 -10.4044 -3.26091 7.92829 -9.30835 3.20538 -3.76595 -1.44387 -1.073e-06 -7.2776 -3.05998e-06 
0.144427 103.396 1.42968 -3.74602 -3.37243 -5.45831 2.72517 3.35405 1.36725 1.55083 1.15653 0.30112 1.55394 1.13128 0.323848 0.460445 5.62688 -0.123055 -0.0875433 -7.55675 1.36442 -11.7599 4.69041 -16.8666 -69.897 20.1345 -3.25882 -0.000194165 -7.03034e-06 -1.44907 -7.36519 -32.8324 -5.36284 14.189 5.01304 14.5828 61.3151 30.2259 2.56906 -3.6074e-06 -5.53611e-06 6.67959 7.23073 -20.0365 1.97212 10.09 -8.04635 16.3751 4.26719 12.3041 1.14487 -7.1123 1.19784 0.667983 -2.7675e-06 -4.94084 -3.30874e-06 3.44978 -0.0309448 -10.3999 -3.26358 7.8991 -9.31112 3.2056 -3.75228 -1.44359 -1.35057e-06 -7.26932 1.5652e-06 
0.145899 103.398 1.43763 -3.74502 -3.36181 -5.47021 2.71826 3.34104 1.34974 1.5485 1.1523 0.29389 1.55164 1.12704 0.316631 0.464205 5.62815 -0.122289 -0.0931472 -7.54951 1.36382 -11.7346 4.6866 -16.8835 -69.9223 20.1718 -3.22754 -0.000213155 -1.07114e-05 -1.43875 -7.36512 -32.8247 -5.33941 14.1524 5.0081 14.5968 61.2977 30.2386 2.56855 -1.58043e-05 -1.11724e-05 6.66624 7.23806 -20.0078 1.96936 10.0866 -8.04622 16.3667 4.26779 12.2967 1.16365 -7.1142 1.20254 0.668215 8.05777e-07 -4.94646 -1.16909e-05 3.44926 -0.0227702 -10.4021 -3.26222 7.86815 -9.31309 3.2051 -3.73906 -1.43325 1.34212e-06 -7.2637 2.31088e-05 
0.147218 103.401 1.44688 -3.74573 -3.35534 -5.49 2.71003 3.32607 1.32944 1.54578 1.14746 0.285522 1.54897 1.1222 0.308271 0.468669 5.62943 -0.121337 -0.0983771 -7.54328 1.36318 -11.7058 4.6822 -16.9016 -69.9518 20.2136 -3.19077 -0.000202732 -1.58005e-06 -1.42722 -7.36699 -32.8158 -5.3131 14.1128 5.00259 14.61 61.2768 30.2532 2.56896 -1.70477e-05 -6.51785e-06 6.65228 7.24619 -19.9768 1.96734 10.0839 -8.03459 16.3603 4.2691 12.2817 1.18589 -7.12206 1.20664 0.66925 2.36335e-06 -4.94507 -1.66637e-06 3.44834 -0.00461266 -10.4074 -3.25834 7.82816 -9.31537 3.20342 -3.7219 -1.40963 -8.1472e-08 -7.26148 3.11734e-06 
0.1479 103.405 1.45657 -3.74906 -3.35067 -5.52301 2.70287 3.31101 1.30879 1.543 1.14263 0.277022 1.54623 1.11737 0.299775 0.473377 5.63041 -0.120268 -0.101723 -7.54033 1.36262 -11.6773 4.67775 -16.9179 -69.9821 20.254 -3.15258 -0.000232612 -8.93717e-06 -1.41626 -7.37193 -32.8067 -5.28761 14.0769 4.99732 14.6187 61.2541 30.2678 2.57103 1.00111e-05 -8.85455e-06 6.64041 7.25388 -19.9489 1.96716 10.0852 -8.0132 16.3611 4.26751 12.2603 1.21886 -7.1314 1.20938 0.670476 -1.30518e-06 -4.93908 -9.975e-06 3.45175 0.0223074 -10.41 -3.25646 7.77368 -9.32027 3.20114 -3.69644 -1.37783 6.53431e-07 -7.25728 -1.85143e-05 
0.148314 103.409 1.46602 -3.75286 -3.34312 -5.56556 2.69745 3.29774 1.29029 1.54048 1.13845 0.269401 1.54376 1.11319 0.292152 0.477865 5.63078 -0.119146 -0.101669 -7.5428 1.36223 -11.653 4.67381 -16.929 -70.0098 20.287 -3.11701 -0.000198315 7.63441e-07 -1.40748 -7.38102 -32.7986 -5.26665 14.0513 4.99312 14.6194 61.2317 30.2805 2.57536 5.12074e-06 -6.71703e-06 6.63333 7.25998 -19.9293 1.9699 10.0883 -7.99156 16.3657 4.26353 12.2379 1.26583 -7.13682 1.20959 0.671193 -2.61052e-06 -4.93186 1.62606e-06 3.45603 0.0443766 -10.4102 -3.2559 7.72122 -9.32645 3.19911 -3.67043 -1.34197 -5.45627e-07 -7.24874 -1.23386e-05 
0.148722 103.411 1.47492 -3.75588 -3.33358 -5.60881 2.69204 3.28651 1.27242 1.53821 1.13512 0.261929 1.54152 1.10987 0.284668 0.481704 5.62848 -0.11773 -0.0929463 -7.55724 1.35951 -11.635 4.67052 -16.9312 -70.0369 20.3119 -3.0797 -0.000156633 -9.13033e-06 -1.40164 -7.40156 -32.793 -5.25209 14.0454 4.99058 14.6006 61.2036 30.2945 2.58701 -6.87993e-06 1.77171e-06 6.63537 7.26228 -19.9258 1.97848 10.0919 -7.98189 16.3686 4.26181 12.2344 1.3165 -7.13865 1.20124 0.671124 -2.44254e-06 -4.92454 4.1383e-06 3.45616 0.0497311 -10.4088 -3.25462 7.69843 -9.32859 3.19934 -3.65893 -1.3023 1.11973e-06 -7.24053 1.54274e-05 
0.148942 103.41 1.48366 -3.75973 -3.32745 -5.65034 2.68761 3.27867 1.25372 1.53654 1.13301 0.254136 1.5399 1.10777 0.276852 0.481754 5.6218 -0.117596 -0.0830164 -7.55993 1.34327 -11.6237 4.66867 -16.9361 -70.0613 20.3443 -3.04206 -0.000180595 -7.20032e-06 -1.39435 -7.41868 -32.7959 -5.23754 14.0425 4.98832 14.5789 61.1754 30.3185 2.60063 -1.96782e-05 5.50823e-06 6.63664 7.26017 -19.9227 1.97833 10.0984 -7.98136 16.3714 4.26298 12.2543 1.36151 -7.14001 1.18715 0.670689 2.41521e-06 -4.92149 7.50982e-06 3.45441 0.0469 -10.4052 -3.25343 7.70083 -9.32804 3.20219 -3.66064 -1.25896 3.19919e-07 -7.23771 2.61814e-05 
0.149303 103.411 1.49291 -3.76659 -3.32428 -5.69259 2.68419 3.2731 1.23829 1.53487 1.13165 0.247715 1.53826 1.10642 0.270415 0.48161 5.61388 -0.120246 -0.073581 -7.54955 1.31472 -11.6149 4.66732 -16.9412 -70.0785 20.3793 -3.01176 -0.000199637 3.72726e-06 -1.38607 -7.42996 -32.7939 -5.21456 14.0418 4.98628 14.5552 61.1559 30.3464 2.61259 -2.26434e-05 -2.2027e-06 6.64112 7.25839 -19.9159 1.97209 10.1083 -7.9751 16.3779 4.26324 12.27 1.39908 -7.14137 1.17871 0.670569 4.47094e-07 -4.9229 1.163e-05 3.45737 0.0601824 -10.4038 -3.25113 7.6777 -9.33154 3.20235 -3.64995 -1.21647 3.42753e-07 -7.23641 7.69763e-06 
0.15052 103.416 1.50267 -3.77658 -3.31609 -5.73455 2.68191 3.26757 1.22899 1.53273 1.13012 0.243828 1.53614 1.10488 0.26652 0.483942 5.6052 -0.125087 -0.0643781 -7.53731 1.28289 -11.6051 4.6654 -16.9399 -70.0848 20.407 -3.00035 -0.000206009 -3.49803e-06 -1.37903 -7.43774 -32.7662 -5.17728 14.0448 4.98466 14.5292 61.1448 30.3722 2.62215 1.41248e-06 4.93301e-06 6.6517 7.26078 -19.909 1.96929 10.1197 -7.95984 16.3868 4.26012 12.2592 1.43078 -7.14263 1.18103 0.67108 3.1678e-06 -4.92272 3.36001e-06 3.46803 0.0930354 -10.4077 -3.24634 7.6035 -9.34225 3.19626 -3.61327 -1.18271 -6.01432e-07 -7.22742 -1.83994e-05 
0.152258 103.421 1.51228 -3.7859 -3.29894 -5.77459 2.67982 3.26194 1.2242 1.53048 1.12833 0.241754 1.5339 1.1031 0.264438 0.4876 5.59231 -0.129528 -0.0577754 -7.53625 1.25878 -11.596 4.66318 -16.931 -70.082 20.4211 -3.00855 -0.000199603 -8.70996e-06 -1.37458 -7.44449 -32.7122 -5.13541 14.0502 4.98322 14.5007 61.1365 30.3965 2.63214 -1.89818e-05 -1.39717e-06 6.66576 7.26539 -19.9068 1.97344 10.1317 -7.94785 16.3976 4.25326 12.2366 1.45697 -7.14629 1.18516 0.672028 1.9931e-06 -4.92074 -8.31098e-06 3.4806 0.121433 -10.4112 -3.24137 7.51751 -9.35661 3.18839 -3.56966 -1.1583 -2.25454e-06 -7.21131 -1.9907e-05 
0.153254 103.423 1.52125 -3.79079 -3.27808 -5.81249 2.67635 3.25912 1.21933 1.52874 1.12745 0.239605 1.53217 1.10221 0.262281 0.491148 5.57249 -0.131334 -0.05769 -7.55066 1.24976 -11.5907 4.66156 -16.9199 -70.0796 20.423 -3.02253 -0.000211923 -4.80171e-07 -1.37128 -7.44777 -32.661 -5.10691 14.0561 4.98179 14.4713 61.1269 30.4217 2.64503 2.88829e-05 3.12472e-06 6.67806 7.2676 -19.9079 1.97903 10.1449 -7.95222 16.411 4.24467 12.2375 1.47929 -7.15219 1.17842 0.67257 2.74411e-06 -4.92157 -5.75674e-06 3.48558 0.119536 -10.4085 -3.23852 7.48433 -9.36348 3.18574 -3.55226 -1.1353 -9.62221e-07 -7.1973 -1.2303e-05 
0.153223 103.421 1.52959 -3.79471 -3.25984 -5.84618 2.673 3.26248 1.21204 1.52753 1.12879 0.236491 1.53097 1.10357 0.259151 0.496471 5.54844 -0.131009 -0.0627418 -7.57661 1.25424 -11.5874 4.66056 -16.913 -70.0875 20.4182 -3.02726 -0.000230259 -4.31223e-06 -1.36789 -7.44134 -32.6448 -5.10014 14.0643 4.98108 14.4458 61.1161 30.4455 2.65854 -2.5836e-05 -3.39159e-09 6.68668 7.26602 -19.9081 1.98163 10.1599 -7.96887 16.4242 4.23863 12.2645 1.49994 -7.15757 1.16209 0.672547 -1.42161e-07 -4.92419 1.64835e-06 3.4866 0.100378 -10.4027 -3.23699 7.49257 -9.367 3.18735 -3.5562 -1.10883 2.73684e-06 -7.19042 1.55372e-05 
0.151784 103.42 1.53751 -3.80158 -3.24632 -5.87524 2.6697 3.27305 1.20528 1.52628 1.13273 0.233644 1.52972 1.10751 0.256293 0.506004 5.52719 -0.131605 -0.0640419 -7.60811 1.25974 -11.5815 4.65934 -16.9109 -70.1041 20.4114 -3.02146 -0.000191597 8.69363e-07 -1.36586 -7.42478 -32.6665 -5.11012 14.078 4.9821 14.4306 61.1074 30.4622 2.66661 -1.40467e-05 -6.30499e-06 6.69354 7.26384 -19.9072 1.98481 10.1771 -7.98469 16.4372 4.23606 12.2963 1.51558 -7.16158 1.14464 0.672376 3.14062e-07 -4.92526 2.45237e-06 3.49206 0.0865371 -10.397 -3.2365 7.501 -9.37186 3.18874 -3.56122 -1.0839 -3.3291e-07 -7.18556 1.59757e-06 
0.147873 103.419 1.54482 -3.81303 -3.23546 -5.90259 2.66682 3.28846 1.2038 1.52476 1.13828 0.233009 1.52819 1.11306 0.25565 0.517788 5.51502 -0.13583 -0.0536184 -7.6406 1.2502 -11.5732 4.65765 -16.9086 -70.1149 20.4059 -3.01757 -0.000193191 -1.12689e-05 -1.36689 -7.40925 -32.7026 -5.12847 14.0959 4.98489 14.4286 61.105 30.4699 2.665 -5.83192e-06 -5.69231e-06 6.70018 7.2646 -19.9082 1.99337 10.1999 -7.99441 16.455 4.23339 12.3209 1.52277 -7.1641 1.12985 0.672202 -1.01708e-06 -4.92621 -5.78023e-06 3.50807 0.0869961 -10.3889 -3.23885 7.48591 -9.37844 3.18742 -3.55516 -1.06671 -1.45484e-06 -7.17855 -1.21952e-05 
